<?xml version="1.0" standalone="no"?>
<!DOCTYPE svg PUBLIC "-//W3C//DTD SVG 20010904//EN"
 "http://www.w3.org/TR/2001/REC-SVG-20010904/DTD/svg10.dtd">
<svg version="1.0" xmlns="http://www.w3.org/2000/svg"
 width="1054.000000pt" height="1054.000000pt" viewBox="0 0 1054.000000 1054.000000"
 preserveAspectRatio="xMidYMid meet">
<metadata>
Created by potrace 1.14, written by Peter Selinger 2001-2017
</metadata>
<g transform="translate(0.000000,1054.000000) scale(0.100000,-0.100000)"
fill="#000000" stroke="none">
<path d="M3617 8516 c-832 -190 -890 -205 -918 -232 -64 -61 -81 38 260 -1467
170 -753 317 -1380 326 -1393 19 -30 69 -56 109 -57 17 0 275 55 574 123 299
67 544 121 546 119 2 -2 227 -598 500 -1324 274 -726 501 -1323 505 -1327 5
-6 3335 1243 3348 1255 2 2 -130 356 -292 786 l-295 781 0 284 0 283 -107 7
c-59 4 -110 11 -113 16 -3 6 -167 437 -364 959 -351 929 -359 949 -381 941
-932 -354 -2338 -880 -2342 -876 -3 3 -70 287 -148 631 -137 606 -143 627
-173 657 -57 58 -50 59 -1035 -166z m-749 -582 c43 -30 21 -94 -31 -94 -40 0
-57 15 -57 51 0 27 30 59 55 59 6 0 21 -7 33 -16z m60 -220 c43 -30 21 -94
-31 -94 -40 0 -57 15 -57 51 0 27 30 59 55 59 6 0 21 -7 33 -16z m1628 -311
c-8 -8 -1198 -275 -1203 -270 -9 10 -44 180 -38 186 4 3 275 67 603 141 l597
135 23 -94 c12 -52 20 -96 18 -98z m3134 -1383 c68 -205 164 -505 245 -760 23
-74 86 -269 139 -433 53 -163 98 -310 100 -325 1 -15 13 -47 26 -72 15 -29 18
-41 8 -35 -7 6 -4 1 8 -10 13 -12 19 -26 15 -36 -8 -22 -463 -361 -472 -352
-27 31 -1179 1585 -1179 1592 0 5 44 41 98 81 53 40 99 74 101 76 2 2 -4 15
-13 28 -9 14 -16 27 -16 30 0 2 69 43 153 90 83 47 158 90 166 95 11 7 11 16
4 38 l-11 29 267 86 c146 47 272 85 280 85 9 -1 39 -78 81 -207z m-4372 84
c43 -30 21 -94 -31 -94 -40 0 -57 15 -57 51 0 27 30 59 55 59 6 0 21 -7 33
-16z m60 -220 c43 -30 21 -94 -31 -94 -40 0 -57 15 -57 51 0 27 30 59 55 59 6
0 21 -7 33 -16z"/>
<path d="M7405 6142 c-77 -25 -142 -47 -143 -48 -2 -1 44 -88 103 -192 l107
-189 99 32 c55 18 102 35 105 38 6 6 -113 388 -124 398 -4 3 -70 -14 -147 -39z"/>
<path d="M7178 6068 c-16 -5 -28 -14 -28 -19 0 -14 12 -11 45 11 32 21 26 24
-17 8z"/>
<path d="M7122 5988 c-49 -27 -72 -45 -68 -54 3 -7 59 -85 125 -173 l121 -160
46 26 c25 14 48 31 50 37 4 11 -174 337 -194 358 -4 4 -40 -11 -80 -34z"/>
<path d="M6913 5872 c-54 -32 -79 -52 -74 -60 5 -8 30 5 81 43 111 83 110 85
-7 17z"/>
<path d="M6818 5744 l-167 -125 126 -170 c70 -93 129 -168 133 -167 18 8 329
244 330 251 0 10 -242 337 -249 337 -4 0 -81 -57 -173 -126z"/>
<path d="M7603 5673 c-46 -14 -83 -30 -83 -34 0 -5 46 -90 102 -190 113 -199
105 -192 185 -157 l30 13 -64 198 c-38 116 -69 197 -76 196 -7 0 -49 -12 -94
-26z"/>
<path d="M7398 5561 l-48 -28 123 -166 c67 -91 127 -166 133 -166 5 -1 18 5
28 12 18 13 14 22 -57 148 -42 74 -89 155 -104 181 l-28 46 -47 -27z"/>
<path d="M7126 5340 c-88 -66 -161 -122 -164 -124 -9 -9 241 -337 253 -332 7
2 83 57 170 121 99 74 154 122 151 131 -8 20 -238 324 -245 324 -3 0 -78 -54
-165 -120z"/>
<path d="M7810 5207 c-19 -6 -37 -12 -38 -13 -2 -1 37 -76 88 -166 107 -189
120 -211 125 -206 7 7 -121 392 -131 394 -5 1 -25 -3 -44 -9z"/>
<path d="M7672 5131 c-10 -6 10 -41 83 -140 53 -72 99 -131 102 -131 3 0 -1
10 -9 23 -27 40 -74 121 -112 190 -38 69 -42 73 -64 58z"/>
<path d="M7430 4934 c-91 -69 -164 -127 -164 -130 1 -3 56 -80 123 -170 l121
-164 165 122 c91 67 165 126 165 130 0 7 -221 312 -239 329 -3 4 -80 -49 -171
-117z"/>
<path d="M8140 4540 c6 -11 13 -20 16 -20 2 0 0 9 -6 20 -6 11 -13 20 -16 20
-2 0 0 -9 6 -20z"/>
<path d="M8130 4486 c0 -2 8 -10 18 -17 15 -13 16 -12 3 4 -13 16 -21 21 -21
13z"/>
<path d="M8160 4446 c0 -2 8 -10 18 -17 15 -13 16 -12 3 4 -13 16 -21 21 -21
13z"/>
<path d="M5426 7928 c-9 -12 -16 -30 -16 -40 0 -26 36 -58 64 -58 32 0 69 45
60 74 -14 49 -81 63 -108 24z"/>
<path d="M8468 6768 c-3 -29 -7 -33 -35 -36 -47 -5 -44 -32 2 -32 33 0 35 -2
35 -35 0 -19 5 -35 10 -35 6 0 10 16 10 35 0 33 2 35 35 35 24 0 35 5 35 15 0
10 -11 15 -35 15 -33 0 -35 2 -35 35 0 44 -18 46 -22 3z"/>
<path d="M2116 6358 c-9 -12 -16 -30 -16 -40 0 -26 36 -58 64 -58 32 0 69 45
60 74 -14 49 -81 63 -108 24z"/>
<path d="M1397 5812 c-21 -23 -22 -66 -1 -86 23 -24 70 -20 88 6 21 30 20 54
-4 78 -25 25 -62 26 -83 2z"/>
<path d="M3148 4778 c-3 -29 -7 -33 -35 -36 -47 -5 -44 -32 2 -32 33 0 35 -2
35 -35 0 -19 5 -35 10 -35 6 0 10 16 10 35 0 33 2 35 35 35 24 0 35 5 35 15 0
10 -11 15 -35 15 -33 0 -35 2 -35 35 0 44 -18 46 -22 3z"/>
<path d="M9242 4714 c-42 -29 -18 -104 34 -104 26 0 50 20 59 47 4 17 -1 29
-19 48 -29 29 -43 31 -74 9z"/>
<path d="M1260 4405 c-7 -8 -23 -15 -36 -15 -27 0 -32 -21 -9 -40 8 -7 15 -23
15 -36 0 -32 14 -37 40 -14 13 11 31 20 41 20 27 0 31 15 9 35 -11 10 -20 29
-20 42 0 26 -21 31 -40 8z"/>
<path d="M4368 3568 c-3 -29 -7 -33 -35 -36 -47 -5 -44 -32 2 -32 33 0 35 -2
35 -35 0 -19 5 -35 10 -35 6 0 10 16 10 35 0 33 2 35 35 35 24 0 35 5 35 15 0
10 -11 15 -35 15 -33 0 -35 2 -35 35 0 44 -18 46 -22 3z"/>
<path d="M8690 2945 c-7 -8 -23 -15 -36 -15 -31 0 -40 -17 -20 -39 9 -10 16
-27 16 -39 0 -29 18 -37 39 -18 10 9 27 16 39 16 28 0 37 18 19 38 -8 9 -17
28 -19 41 -4 30 -21 37 -38 16z"/>
<path d="M7930 1935 c-7 -8 -23 -15 -36 -15 -31 0 -40 -17 -20 -39 9 -10 16
-27 16 -39 0 -29 18 -37 39 -18 10 9 27 16 39 16 28 0 37 18 19 38 -8 9 -17
28 -19 41 -4 30 -21 37 -38 16z"/>
</g>
</svg>
